<?xml version="1.0" encoding="UTF-8"?>
<svg width="137.55mm" height="26.891mm" version="1.1" viewBox="0 0 137.55 26.891" xmlns="http://www.w3.org/2000/svg" xmlns:cc="http://creativecommons.org/ns#" xmlns:rdf="http://www.w3.org/1999/02/22-rdf-syntax-ns#">
 <g transform="translate(74.538 -124.49)">
  <g transform="translate(137.8 446.82)">
   <g transform="matrix(3.5586 0 0 3.5586 -255.42 -545)" fill="#3d3846" stroke-width=".26458" aria-label="x">
    <path d="m15.478 65.584 0.59705-0.85778h1.2806l-1.2373 1.6986" fill="#3d3846"/>
   </g>
   <g fill="#3d3846" stroke-width=".94155" aria-label="monad">
    <path d="m-186.95-295.82v-10.018c0-4.0675 2.6363-5.687 4.8961-5.687 2.2221 0 3.8792 1.2052 3.8792 4.2181v11.487h4.0298v-10.206c0-3.5779 2.2597-5.4986 4.8961-5.4986 2.2221 0 3.8792 1.2052 3.8792 4.2181v11.487h4.0298v-12.24c0-4.7454-3.3143-6.9675-6.9675-6.9675-2.4857 0-5.3103 1.1299-6.4779 3.6909-1.1675-2.4857-3.6532-3.6909-6.3272-3.6909-2.4857 0-4.7454 1.0545-6.1012 3.3896l-0.18831-3.013h-3.5779v18.831z"/>
    <path d="m-148.08-315.03c-5.5363 0-9.4155 3.6532-9.4155 9.7921s3.8792 9.7921 9.4155 9.7921c5.4987 0 9.4155-3.6532 9.4155-9.7921s-3.9168-9.7921-9.4155-9.7921zm0 3.3519c3.3143 0 5.3104 2.2974 5.3104 6.4402s-1.9961 6.4402-5.3104 6.4402c-3.3142 0-5.3103-2.2974-5.3103-6.4402s1.9961-6.4402 5.3103-6.4402z"/>
    <path d="m-124.62-315.03c-2.7117 0-5.009 1.1299-6.2896 3.5402l-0.15064-3.1636h-3.5779v18.831h4.0298v-10.018c0-4.1428 2.6363-5.687 5.0844-5.687 2.2974 0 4.0675 1.2052 4.0675 4.7454v10.96h4.0298v-12.127c0-4.7831-3.1636-7.0805-7.1934-7.0805z"/>
    <path d="m-95.882-298.68c-0.94155 0-1.4312-0.45195-1.4312-1.3935v-8.6246c0-4.3688-3.5402-6.3272-7.909-6.3272-4.6701 0-7.3818 1.9208-8.4363 5.1597l3.6532 1.0922c0.79091-2.0338 2.0714-3.013 4.6324-3.013 2.3727 0 4.0298 1.2052 4.0298 3.6532v1.0169h-5.3103c-4.2935 0-6.9675 2.2221-6.9675 5.8 0 3.6156 2.4104 5.8753 6.6662 5.8753 2.4104 0 4.6701-0.82857 5.9506-2.561 0.56493 1.6571 2.0714 2.4857 3.9922 2.4857 0.7909 0 1.3935-0.11298 1.8454-0.37662l0.18831-2.8623c-0.26363 0.0753-0.60259 0.0753-0.90389 0.0753zm-10.169 0.11298c-2.5987 0-3.5779-1.2805-3.5779-2.9753 0-1.6195 1.2428-2.561 3.8415-2.561h4.4441v1.5065c0 3.013-2.5987 4.0298-4.7078 4.0298z"/>
    <path d="m-78.821-311.67c-1.0545-2.0714-3.1259-3.3519-5.8376-3.3519-4.8584 0-8.6246 3.6532-8.6246 9.8298 0 6.0259 3.5402 9.7545 8.361 9.7545 2.787 0 5.235-1.3935 6.3649-3.7662l0.18831 3.3896h3.5779v-26.514h-4.0298zm-5.235 12.767c-3.2766 0-5.1597-2.3727-5.1597-6.3272s1.9584-6.3649 5.3103-6.3649c3.0506 0 5.0844 2.2974 5.0844 6.1389 0 4.1052-2.0714 6.5532-5.235 6.5532z"/>
   </g>
   <g transform="matrix(3.5586 0 0 3.5586 -255.42 -545)" fill="#fd4d5e" stroke-width=".26458" aria-label="x">
    <path d="m17.44 70.017h-1.3652l-1.3017-1.905-1.3335 1.905h-1.3335l2.0108-2.6987-1.8838-2.5929h1.3864" fill="#fd4d5e"/>
   </g>
  </g>
 </g>
 <!-- © Hans Heintze: https://github.com/literallyunplayable -->
 <metadata>
  <rdf:RDF>
   <cc:License rdf:about="http://creativecommons.org/licenses/by-sa/4.0/">
    <cc:permits rdf:resource="http://creativecommons.org/ns#Reproduction"/>
    <cc:permits rdf:resource="http://creativecommons.org/ns#Distribution"/>
    <cc:permits rdf:resource="http://creativecommons.org/ns#DerivativeWorks"/>
    <cc:requires rdf:resource="http://creativecommons.org/ns#Notice"/>
    <cc:requires rdf:resource="http://creativecommons.org/ns#Attribution"/>
    <cc:requires rdf:resource="http://creativecommons.org/ns#ShareAlike"/>
   </cc:License>
  </rdf:RDF>
 </metadata>
</svg>
